# xmcd
#
# Track frame offsets:
#	150
#	24593
#	41570
#	54127
#	68865
#	85895
#	107386
#	122725
#	137282
#	154347
#	168209
#	187943
#	203690
#	222430
#	242199
#	254752
#	268014
#	280904
#
# Disc length: 3953 seconds
#
# Revision: 2
# Processed by: cddbd v1.5.2PL0 Copyright (c) Steve Scherf et al.
# Submitted via: audiograbber 1.83.01
#
DISCID=fb0f6f12
DTITLE=Various Artist - Promo Only Country Radio 2005 - 08
DYEAR=2005
DGENRE=Country
TTITLE0=Cowboy Troy ft. Sarah Buxton - If You Don't Wanna Love Me
TTITLE1=Carrie Underwood - Inside Your Heaven
TTITLE2=Aaron Tippin - Come Friday
TTITLE3=Jessica Andrews - Summer Girl
TTITLE4=Randy Travis - Angels
TTITLE5=Kacey Jones - Down At The Piggly Wiggly
TTITLE6=Billy Dean - Race You To The Bottom
TTITLE7=Catherine Britt and Elton John - Where We Both Say Goodbye
TTITLE8=Susan Haynes - Crooked Little Heart
TTITLE9=Jeff Bates - Good People
TTITLE10=Kevin Fowler - Don't Touch My Willie
TTITLE11=Brice Long - It's Only Monday
TTITLE12=Brad Paisley - Alcohol
TTITLE13=Big Blue Hearts - Lovin' You
TTITLE14=Kevin Sharp - I Think I'll Stay
TTITLE15=Jace Everett - That's The Kind Of Love I'm In
TTITLE16=David Ball - Too Much Blood In My Alcohol Level
TTITLE17=Lisa Brokop - Big Picture
EXTD=
EXTT0=
EXTT1=
EXTT2=
EXTT3=
EXTT4=
EXTT5=
EXTT6=
EXTT7=
EXTT8=
EXTT9=
EXTT10=
EXTT11=
EXTT12=
EXTT13=
EXTT14=
EXTT15=
EXTT16=
EXTT17=
PLAYORDER=
